{
	"patcher" : 	{
		"fileversion" : 1,
		"appversion" : 		{
			"major" : 9,
			"minor" : 0,
			"revision" : 3,
			"architecture" : "x64",
			"modernui" : 1
		}
,
		"classnamespace" : "box",
		"rect" : [ 0.0, 0.0, 1000.0, 653.600000000000023 ],
		"gridsize" : [ 15.0, 15.0 ],
		"boxes" : [ 			{
				"box" : 				{
					"id" : "obj-46",
					"linecount" : 3,
					"maxclass" : "comment",
					"numinlets" : 1,
					"numoutlets" : 0,
					"patching_rect" : [ 185.0, 99.0, 149.5, 47.0 ],
					"text" : "3 oscillators below keyboard: wavetable, cloud, and sampler"
				}

			}
, 			{
				"box" : 				{
					"id" : "obj-44",
					"linecount" : 2,
					"maxclass" : "comment",
					"numinlets" : 1,
					"numoutlets" : 0,
					"patching_rect" : [ 668.0, 462.0, 103.0, 33.0 ],
					"text" : "signal output and stereo below"
				}

			}
, 			{
				"box" : 				{
					"id" : "obj-42",
					"linecount" : 3,
					"maxclass" : "comment",
					"numinlets" : 1,
					"numoutlets" : 0,
					"patching_rect" : [ 1082.0, 455.0, 150.0, 47.0 ],
					"text" : "attack, decay, sustain, release: change dot locations to change adsr"
				}

			}
, 			{
				"box" : 				{
					"id" : "obj-40",
					"linecount" : 2,
					"maxclass" : "comment",
					"numinlets" : 1,
					"numoutlets" : 0,
					"patching_rect" : [ 986.0, 138.0, 152.0, 33.0 ],
					"text" : "sampler running a g-minor sample"
				}

			}
, 			{
				"box" : 				{
					"id" : "obj-38",
					"maxclass" : "comment",
					"numinlets" : 1,
					"numoutlets" : 0,
					"patching_rect" : [ 314.0, 388.0, 132.0, 20.0 ],
					"text" : "low frequency oscilator"
				}

			}
, 			{
				"box" : 				{
					"id" : "obj-36",
					"linecount" : 3,
					"maxclass" : "comment",
					"numinlets" : 1,
					"numoutlets" : 0,
					"patching_rect" : [ 582.0, 322.0, 150.0, 47.0 ],
					"text" : "this signal mixer takes all of the oscilator inputs and concatenates them"
				}

			}
, 			{
				"box" : 				{
					"id" : "obj-31",
					"linecount" : 4,
					"maxclass" : "comment",
					"numinlets" : 1,
					"numoutlets" : 0,
					"patching_rect" : [ 1199.0, 362.0, 150.0, 60.0 ],
					"text" : "storage of synth presets (json file). write and read edits the json. store 1,2,3 stores different presets"
				}

			}
, 			{
				"box" : 				{
					"id" : "obj-29",
					"linecount" : 3,
					"maxclass" : "comment",
					"numinlets" : 1,
					"numoutlets" : 0,
					"patching_rect" : [ 184.5, 47.0, 150.0, 47.0 ],
					"text" : "keyboard with gate. this is the instrument that triggers sound"
				}

			}
, 			{
				"box" : 				{
					"id" : "obj-27",
					"maxclass" : "message",
					"numinlets" : 2,
					"numoutlets" : 1,
					"outlettype" : [ "" ],
					"patching_rect" : [ 1293.0, 203.0, 29.5, 22.0 ],
					"text" : "2"
				}

			}
, 			{
				"box" : 				{
					"id" : "obj-25",
					"maxclass" : "message",
					"numinlets" : 2,
					"numoutlets" : 1,
					"outlettype" : [ "" ],
					"patching_rect" : [ 1293.0, 235.0, 29.5, 22.0 ],
					"text" : "3"
				}

			}
, 			{
				"box" : 				{
					"id" : "obj-23",
					"maxclass" : "message",
					"numinlets" : 2,
					"numoutlets" : 1,
					"outlettype" : [ "" ],
					"patching_rect" : [ 1293.0, 169.0, 29.5, 22.0 ],
					"text" : "1"
				}

			}
, 			{
				"box" : 				{
					"id" : "obj-21",
					"maxclass" : "message",
					"numinlets" : 2,
					"numoutlets" : 1,
					"outlettype" : [ "" ],
					"patching_rect" : [ 1285.0, 131.0, 45.0, 22.0 ],
					"text" : "store 3"
				}

			}
, 			{
				"box" : 				{
					"id" : "obj-12",
					"maxclass" : "newobj",
					"numinlets" : 1,
					"numoutlets" : 1,
					"outlettype" : [ "bang" ],
					"patching_rect" : [ 1218.0, 29.0, 58.0, 22.0 ],
					"text" : "loadbang"
				}

			}
, 			{
				"box" : 				{
					"id" : "obj-34",
					"maxclass" : "message",
					"numinlets" : 2,
					"numoutlets" : 1,
					"outlettype" : [ "" ],
					"patching_rect" : [ 1285.0, 99.0, 45.0, 22.0 ],
					"text" : "store 2"
				}

			}
, 			{
				"box" : 				{
					"id" : "obj-19",
					"maxclass" : "message",
					"numinlets" : 2,
					"numoutlets" : 1,
					"outlettype" : [ "" ],
					"patching_rect" : [ 1285.0, 66.0, 45.0, 22.0 ],
					"text" : "store 1"
				}

			}
, 			{
				"box" : 				{
					"id" : "obj-16",
					"maxclass" : "message",
					"numinlets" : 2,
					"numoutlets" : 1,
					"outlettype" : [ "" ],
					"patching_rect" : [ 1293.0, 309.0, 33.0, 22.0 ],
					"text" : "read"
				}

			}
, 			{
				"box" : 				{
					"id" : "obj-17",
					"maxclass" : "message",
					"numinlets" : 2,
					"numoutlets" : 1,
					"outlettype" : [ "" ],
					"patching_rect" : [ 1293.0, 279.0, 34.0, 22.0 ],
					"text" : "write"
				}

			}
, 			{
				"box" : 				{
					"id" : "obj-35",
					"maxclass" : "newobj",
					"numinlets" : 1,
					"numoutlets" : 1,
					"outlettype" : [ "" ],
					"patching_rect" : [ 1129.0, 106.0, 133.0, 22.0 ],
					"saved_object_attributes" : 					{
						"client_rect" : [ 950, 233, 1680, 678 ],
						"parameter_enable" : 0,
						"parameter_mappable" : 0,
						"storage_rect" : [ 200, 200, 800, 500 ]
					}
,
					"text" : "pattrstorage beapSynth",
					"varname" : "beapSynth"
				}

			}
, 			{
				"box" : 				{
					"id" : "obj-32",
					"maxclass" : "newobj",
					"numinlets" : 1,
					"numoutlets" : 4,
					"outlettype" : [ "", "", "", "" ],
					"patching_rect" : [ 1129.0, 43.0, 56.0, 22.0 ],
					"text" : "autopattr",
					"varname" : "u808011318"
				}

			}
, 			{
				"box" : 				{
					"bgmode" : 0,
					"border" : 0,
					"clickthrough" : 0,
					"enablehscroll" : 0,
					"enablevscroll" : 0,
					"extract" : 1,
					"id" : "obj-15",
					"lockeddragscroll" : 0,
					"lockedsize" : 0,
					"maxclass" : "bpatcher",
					"name" : "bp.Stereo.maxpat",
					"numinlets" : 2,
					"numoutlets" : 0,
					"offset" : [ 0.0, 0.0 ],
					"patching_rect" : [ 627.0, 666.0, 148.0, 116.0 ],
					"presentation" : 1,
					"presentation_rect" : [ 713.0, 324.0, 148.0, 116.0 ],
					"varname" : "bp.Stereo",
					"viewvisibility" : 1
				}

			}
, 			{
				"box" : 				{
					"bgmode" : 0,
					"border" : 0,
					"clickthrough" : 0,
					"enablehscroll" : 0,
					"enablevscroll" : 0,
					"extract" : 1,
					"id" : "obj-14",
					"lockeddragscroll" : 0,
					"lockedsize" : 0,
					"maxclass" : "bpatcher",
					"name" : "bp.Big Scope.maxpat",
					"numinlets" : 2,
					"numoutlets" : 1,
					"offset" : [ 0.0, 0.0 ],
					"outlettype" : [ "signal" ],
					"patching_rect" : [ 801.0, 568.0, 372.0, 214.0 ],
					"presentation" : 1,
					"presentation_rect" : [ 883.0, 306.0, 372.0, 214.0 ],
					"varname" : "bp.Big Scope",
					"viewvisibility" : 1
				}

			}
, 			{
				"box" : 				{
					"bgmode" : 0,
					"border" : 0,
					"clickthrough" : 0,
					"enablehscroll" : 0,
					"enablevscroll" : 0,
					"extract" : 1,
					"id" : "obj-10",
					"lockeddragscroll" : 0,
					"lockedsize" : 0,
					"maxclass" : "bpatcher",
					"name" : "bp.Wavetable.maxpat",
					"numinlets" : 4,
					"numoutlets" : 1,
					"offset" : [ 0.0, 0.0 ],
					"outlettype" : [ "signal" ],
					"patching_rect" : [ 69.0, 198.0, 381.0, 116.0 ],
					"presentation" : 1,
					"presentation_rect" : [ 106.0, 199.0, 381.0, 116.0 ],
					"varname" : "bp.Wavetable",
					"viewvisibility" : 1
				}

			}
, 			{
				"box" : 				{
					"bgmode" : 0,
					"border" : 0,
					"clickthrough" : 0,
					"enablehscroll" : 0,
					"enablevscroll" : 0,
					"extract" : 1,
					"id" : "obj-9",
					"lockeddragscroll" : 0,
					"lockedsize" : 0,
					"maxclass" : "bpatcher",
					"name" : "bp.Classroom Filter.maxpat",
					"numinlets" : 4,
					"numoutlets" : 1,
					"offset" : [ 0.0, 0.0 ],
					"outlettype" : [ "signal" ],
					"patching_rect" : [ 46.0, 552.0, 558.0, 223.0 ],
					"presentation" : 1,
					"presentation_rect" : [ 106.0, 452.0, 558.0, 223.0 ],
					"varname" : "bp.Classroom Filter",
					"viewvisibility" : 1
				}

			}
, 			{
				"box" : 				{
					"bgmode" : 0,
					"border" : 0,
					"clickthrough" : 0,
					"enablehscroll" : 0,
					"enablevscroll" : 0,
					"extract" : 1,
					"id" : "obj-8",
					"lockeddragscroll" : 0,
					"lockedsize" : 0,
					"maxclass" : "bpatcher",
					"name" : "bp.LFO2.maxpat",
					"numinlets" : 1,
					"numoutlets" : 2,
					"offset" : [ 0.0, 0.0 ],
					"outlettype" : [ "signal", "signal" ],
					"patching_rect" : [ 135.0, 380.0, 170.0, 116.0 ],
					"presentation" : 1,
					"presentation_rect" : [ 702.0, 76.5, 170.0, 116.0 ],
					"varname" : "bp.LFO2",
					"viewvisibility" : 1
				}

			}
, 			{
				"box" : 				{
					"bgmode" : 0,
					"border" : 0,
					"clickthrough" : 0,
					"enablehscroll" : 0,
					"enablevscroll" : 0,
					"extract" : 1,
					"id" : "obj-7",
					"lockeddragscroll" : 0,
					"lockedsize" : 0,
					"maxclass" : "bpatcher",
					"name" : "bp.Graphic ADSR.maxpat",
					"numinlets" : 3,
					"numoutlets" : 1,
					"offset" : [ 0.0, 0.0 ],
					"outlettype" : [ "signal" ],
					"patching_rect" : [ 793.0, 431.0, 267.0, 116.0 ],
					"presentation" : 1,
					"presentation_rect" : [ 420.0, 324.0, 267.0, 116.0 ],
					"varname" : "bp.Graphic ADSR",
					"viewvisibility" : 1
				}

			}
, 			{
				"box" : 				{
					"bgmode" : 0,
					"border" : 0,
					"clickthrough" : 0,
					"enablehscroll" : 0,
					"enablevscroll" : 0,
					"extract" : 1,
					"id" : "obj-5",
					"lockeddragscroll" : 0,
					"lockedsize" : 0,
					"maxclass" : "bpatcher",
					"name" : "bp.VCA.maxpat",
					"numinlets" : 2,
					"numoutlets" : 1,
					"offset" : [ 0.0, 0.0 ],
					"outlettype" : [ "signal" ],
					"patching_rect" : [ 640.0, 515.0, 113.0, 116.0 ],
					"presentation" : 1,
					"presentation_rect" : [ 730.5, 199.0, 113.0, 116.0 ],
					"varname" : "bp.VCA",
					"viewvisibility" : 1
				}

			}
, 			{
				"box" : 				{
					"bgmode" : 0,
					"border" : 0,
					"clickthrough" : 0,
					"enablehscroll" : 0,
					"enablevscroll" : 0,
					"extract" : 1,
					"id" : "obj-4",
					"lockeddragscroll" : 0,
					"lockedsize" : 0,
					"maxclass" : "bpatcher",
					"name" : "bp.Signal Mixer.maxpat",
					"numinlets" : 4,
					"numoutlets" : 1,
					"offset" : [ 0.0, 0.0 ],
					"outlettype" : [ "signal" ],
					"patching_rect" : [ 473.0, 380.0, 175.0, 116.0 ],
					"presentation" : 1,
					"presentation_rect" : [ 512.0, 199.0, 175.0, 116.0 ],
					"varname" : "bp.Signal Mixer",
					"viewvisibility" : 1
				}

			}
, 			{
				"box" : 				{
					"bgmode" : 0,
					"border" : 0,
					"clickthrough" : 0,
					"enablehscroll" : 0,
					"enablevscroll" : 0,
					"extract" : 1,
					"id" : "obj-3",
					"lockeddragscroll" : 0,
					"lockedsize" : 0,
					"maxclass" : "bpatcher",
					"name" : "bp.Samplr.maxpat",
					"numinlets" : 4,
					"numoutlets" : 1,
					"offset" : [ 0.0, 0.0 ],
					"outlettype" : [ "signal" ],
					"patching_rect" : [ 805.0, 180.0, 364.0, 220.0 ],
					"presentation" : 1,
					"presentation_rect" : [ 891.0, 76.5, 364.0, 220.0 ],
					"varname" : "bp.Samplr",
					"viewvisibility" : 1
				}

			}
, 			{
				"box" : 				{
					"bgmode" : 0,
					"border" : 0,
					"clickthrough" : 0,
					"enablehscroll" : 0,
					"enablevscroll" : 0,
					"extract" : 1,
					"id" : "obj-2",
					"lockeddragscroll" : 0,
					"lockedsize" : 0,
					"maxclass" : "bpatcher",
					"name" : "bp.Cloud.maxpat",
					"numinlets" : 4,
					"numoutlets" : 1,
					"offset" : [ 0.0, 0.0 ],
					"outlettype" : [ "signal" ],
					"patching_rect" : [ 495.0, 188.0, 280.0, 116.0 ],
					"presentation" : 1,
					"presentation_rect" : [ 106.0, 324.0, 280.0, 116.0 ],
					"varname" : "bp.Cloud",
					"viewvisibility" : 1
				}

			}
, 			{
				"box" : 				{
					"bgmode" : 0,
					"border" : 0,
					"clickthrough" : 0,
					"enablehscroll" : 0,
					"enablevscroll" : 0,
					"extract" : 1,
					"id" : "obj-1",
					"lockeddragscroll" : 0,
					"lockedsize" : 0,
					"maxclass" : "bpatcher",
					"name" : "bp.Keyboard.maxpat",
					"numinlets" : 0,
					"numoutlets" : 4,
					"offset" : [ 0.0, 0.0 ],
					"outlettype" : [ "signal", "signal", "signal", "signal" ],
					"patching_rect" : [ 383.0, 36.0, 578.0, 117.0 ],
					"presentation" : 1,
					"presentation_rect" : [ 106.0, 76.0, 581.0, 117.0 ],
					"varname" : "bp.Keyboard",
					"viewvisibility" : 1
				}

			}
 ],
		"lines" : [ 			{
				"patchline" : 				{
					"destination" : [ "obj-10", 0 ],
					"order" : 2,
					"source" : [ "obj-1", 0 ]
				}

			}
, 			{
				"patchline" : 				{
					"destination" : [ "obj-2", 0 ],
					"order" : 1,
					"source" : [ "obj-1", 0 ]
				}

			}
, 			{
				"patchline" : 				{
					"destination" : [ "obj-3", 0 ],
					"order" : 0,
					"source" : [ "obj-1", 0 ]
				}

			}
, 			{
				"patchline" : 				{
					"destination" : [ "obj-7", 0 ],
					"source" : [ "obj-1", 1 ]
				}

			}
, 			{
				"patchline" : 				{
					"destination" : [ "obj-4", 2 ],
					"source" : [ "obj-10", 0 ]
				}

			}
, 			{
				"patchline" : 				{
					"destination" : [ "obj-23", 0 ],
					"source" : [ "obj-12", 0 ]
				}

			}
, 			{
				"patchline" : 				{
					"destination" : [ "obj-35", 0 ],
					"source" : [ "obj-16", 0 ]
				}

			}
, 			{
				"patchline" : 				{
					"destination" : [ "obj-35", 0 ],
					"source" : [ "obj-17", 0 ]
				}

			}
, 			{
				"patchline" : 				{
					"destination" : [ "obj-35", 0 ],
					"source" : [ "obj-19", 0 ]
				}

			}
, 			{
				"patchline" : 				{
					"destination" : [ "obj-4", 0 ],
					"source" : [ "obj-2", 0 ]
				}

			}
, 			{
				"patchline" : 				{
					"destination" : [ "obj-35", 0 ],
					"source" : [ "obj-21", 0 ]
				}

			}
, 			{
				"patchline" : 				{
					"destination" : [ "obj-35", 0 ],
					"source" : [ "obj-23", 0 ]
				}

			}
, 			{
				"patchline" : 				{
					"destination" : [ "obj-35", 0 ],
					"source" : [ "obj-25", 0 ]
				}

			}
, 			{
				"patchline" : 				{
					"destination" : [ "obj-35", 0 ],
					"source" : [ "obj-27", 0 ]
				}

			}
, 			{
				"patchline" : 				{
					"destination" : [ "obj-4", 1 ],
					"source" : [ "obj-3", 0 ]
				}

			}
, 			{
				"patchline" : 				{
					"destination" : [ "obj-35", 0 ],
					"source" : [ "obj-34", 0 ]
				}

			}
, 			{
				"patchline" : 				{
					"destination" : [ "obj-14", 0 ],
					"order" : 2,
					"source" : [ "obj-4", 0 ]
				}

			}
, 			{
				"patchline" : 				{
					"destination" : [ "obj-5", 0 ],
					"order" : 1,
					"source" : [ "obj-4", 0 ]
				}

			}
, 			{
				"patchline" : 				{
					"destination" : [ "obj-9", 0 ],
					"order" : 0,
					"source" : [ "obj-4", 0 ]
				}

			}
, 			{
				"patchline" : 				{
					"destination" : [ "obj-15", 1 ],
					"order" : 0,
					"source" : [ "obj-5", 0 ]
				}

			}
, 			{
				"patchline" : 				{
					"destination" : [ "obj-15", 0 ],
					"order" : 1,
					"source" : [ "obj-5", 0 ]
				}

			}
, 			{
				"patchline" : 				{
					"destination" : [ "obj-5", 1 ],
					"source" : [ "obj-7", 0 ]
				}

			}
, 			{
				"patchline" : 				{
					"destination" : [ "obj-9", 1 ],
					"source" : [ "obj-8", 0 ]
				}

			}
, 			{
				"patchline" : 				{
					"destination" : [ "obj-5", 0 ],
					"source" : [ "obj-9", 0 ]
				}

			}
 ],
		"originid" : "pat-113",
		"parameters" : 		{
			"obj-10::obj-100" : [ "Offset[1]", "Offset", 0 ],
			"obj-10::obj-110" : [ "Wavetable", "Wavetable", 0 ],
			"obj-10::obj-12" : [ "Mute[2]", "Mute", 0 ],
			"obj-10::obj-154" : [ "CV2[2]", "CV2", 0 ],
			"obj-10::obj-25" : [ "WaveCV", "CV", 0 ],
			"obj-10::obj-3" : [ "Wave", "Wave", 0 ],
			"obj-10::obj-80" : [ "BankCV", "CV", 0 ],
			"obj-10::obj-81" : [ "Bank", "Bank", 0 ],
			"obj-14::obj-1" : [ "divide", "divide", 0 ],
			"obj-14::obj-129" : [ "Points", "Points", 0 ],
			"obj-14::obj-52" : [ "multiply", "multiply", 0 ],
			"obj-14::obj-69" : [ "Lock", "Lock", 0 ],
			"obj-15::obj-22" : [ "Mute[3]", "Mute", 0 ],
			"obj-15::obj-52" : [ "Level", "Level", 0 ],
			"obj-15::obj-55" : [ "DSP", "DSP", 0 ],
			"obj-15::obj-56" : [ "OutputChannel", "OutputChannel", 0 ],
			"obj-1::obj-12" : [ "KeyboardMode", "KeyboardMode", 0 ],
			"obj-1::obj-15::obj-2" : [ "pastebang", "pastebang", 0 ],
			"obj-1::obj-48" : [ "live.text", "live.text", 0 ],
			"obj-1::obj-5" : [ "Octave", "Octave", 0 ],
			"obj-1::obj-52" : [ "octave", "octave", 0 ],
			"obj-1::obj-68" : [ "RepeatInterval", "RepeatInterval", 0 ],
			"obj-1::obj-71" : [ "velocity", "velocity", 0 ],
			"obj-2::obj-106" : [ "CV3", "CV3", 0 ],
			"obj-2::obj-107" : [ "Linear", "Linear", 0 ],
			"obj-2::obj-129" : [ "CV2", "CV2", 0 ],
			"obj-2::obj-20" : [ "Mute", "Mute", 0 ],
			"obj-2::obj-24" : [ "Freq", "Freq", 0 ],
			"obj-2::obj-331" : [ "WaveformCloud", "Waveform", 0 ],
			"obj-2::obj-45" : [ "TimeMode", "TimeMode", 1 ],
			"obj-2::obj-46" : [ "Offset", "Offset", 0 ],
			"obj-2::obj-51" : [ "Fatness", "Fatness", 0 ],
			"obj-3::obj-129" : [ "SampleStart[1]", "SampleStart", 0 ],
			"obj-3::obj-151" : [ "LoopStart[1]", "LoopStart", 0 ],
			"obj-3::obj-152" : [ "LoopEnd[1]", "LoopEnd", 0 ],
			"obj-3::obj-19" : [ "import[1]", "import", 0 ],
			"obj-3::obj-20" : [ "power[1]", "power", 0 ],
			"obj-3::obj-290" : [ "Release", "Release", 0 ],
			"obj-3::obj-32" : [ "getsamplelength[1]", "getsamplelength", 0 ],
			"obj-3::obj-49" : [ "RecordGate[1]", "RecordGate", 0 ],
			"obj-3::obj-61" : [ "Loop[1]", "Loop", 0 ],
			"obj-3::obj-63" : [ "Root", "Bias", 0 ],
			"obj-3::obj-69::obj-2" : [ "pastebang[1]", "pastebang", 0 ],
			"obj-3::obj-8" : [ "write[1]", "write", 0 ],
			"obj-4::obj-29" : [ "in3", "in3", 0 ],
			"obj-4::obj-32" : [ "in2", "in2", 0 ],
			"obj-4::obj-33" : [ "in4", "in4", 0 ],
			"obj-4::obj-37" : [ "power", "power", 0 ],
			"obj-4::obj-39" : [ "in1", "in1", 0 ],
			"obj-5::obj-33" : [ "Quadrants", "Quadrants", 0 ],
			"obj-5::obj-55" : [ "Bypass", "Bypass", 0 ],
			"obj-5::obj-80" : [ "Response", "Response", 0 ],
			"obj-7::obj-106" : [ "DomainCV_Amt", "DomainCV_Amt", 0 ],
			"obj-7::obj-12" : [ "function", "function", 0 ],
			"obj-7::obj-129" : [ "Domain", "Domain", 0 ],
			"obj-7::obj-20" : [ "mute", "mute", 0 ],
			"obj-8::obj-12" : [ "Mute[1]", "Mute", 0 ],
			"obj-8::obj-144" : [ "Phase", "Phase", 0 ],
			"obj-8::obj-74" : [ "Rate", "Rate", 0 ],
			"obj-8::obj-75" : [ "Shape", "Shape", 0 ],
			"obj-8::obj-81" : [ "Phase-Inversion", "Phase-Inversion", 1 ],
			"obj-8::obj-88" : [ "Time Mode", "Time Mode", 1 ],
			"obj-8::obj-89" : [ "SyncRate", "Rate", 0 ],
			"obj-8::obj-94" : [ "Re-Trigger", "Re-Trigger", 0 ],
			"obj-9::obj-11" : [ "Resonance", "Res", 0 ],
			"obj-9::obj-26" : [ "spectral", "spectral", 0 ],
			"obj-9::obj-51" : [ "CV2[1]", "CV2", 0 ],
			"obj-9::obj-54" : [ "CV1", "CV1", 0 ],
			"obj-9::obj-55" : [ "power[2]", "power", 0 ],
			"obj-9::obj-59" : [ "filter_mode", "filter_mode", 0 ],
			"obj-9::obj-63" : [ "CV3[1]", "CV3", 0 ],
			"obj-9::obj-95" : [ "Freq[1]", "Freq", 0 ],
			"obj-9::obj-98" : [ "Gain", "Gain", 0 ],
			"parameterbanks" : 			{
				"0" : 				{
					"index" : 0,
					"name" : "",
					"parameters" : [ "-", "-", "-", "-", "-", "-", "-", "-" ]
				}

			}
,
			"parameter_overrides" : 			{
				"obj-10::obj-100" : 				{
					"parameter_longname" : "Offset[1]"
				}
,
				"obj-10::obj-12" : 				{
					"parameter_longname" : "Mute[2]"
				}
,
				"obj-10::obj-154" : 				{
					"parameter_longname" : "CV2[2]"
				}
,
				"obj-15::obj-22" : 				{
					"parameter_longname" : "Mute[3]"
				}
,
				"obj-3::obj-69::obj-2" : 				{
					"parameter_longname" : "pastebang[1]"
				}
,
				"obj-8::obj-12" : 				{
					"parameter_longname" : "Mute[1]"
				}
,
				"obj-9::obj-51" : 				{
					"parameter_longname" : "CV2[1]"
				}
,
				"obj-9::obj-55" : 				{
					"parameter_longname" : "power[2]"
				}
,
				"obj-9::obj-63" : 				{
					"parameter_longname" : "CV3[1]"
				}
,
				"obj-9::obj-95" : 				{
					"parameter_longname" : "Freq[1]"
				}

			}
,
			"inherited_shortname" : 1
		}
,
		"dependency_cache" : [ 			{
				"name" : "background_sm.maxpat",
				"bootpath" : "C74:/packages/BEAP/misc",
				"type" : "JSON",
				"implicit" : 1
			}
, 			{
				"name" : "bp.Big Scope.maxpat",
				"bootpath" : "C74:/packages/BEAP/clippings/BEAP/Scope",
				"type" : "JSON",
				"implicit" : 1
			}
, 			{
				"name" : "bp.Classroom Filter.maxpat",
				"bootpath" : "C74:/packages/BEAP/clippings/BEAP/Filter",
				"type" : "JSON",
				"implicit" : 1
			}
, 			{
				"name" : "bp.Cloud.maxpat",
				"bootpath" : "C74:/packages/BEAP/clippings/BEAP/Oscillator",
				"type" : "JSON",
				"implicit" : 1
			}
, 			{
				"name" : "bp.Gate Pad.maxpat",
				"bootpath" : "C74:/packages/BEAP/clippings/BEAP/Input",
				"type" : "JSON",
				"implicit" : 1
			}
, 			{
				"name" : "bp.Graphic ADSR.maxpat",
				"bootpath" : "C74:/packages/BEAP/clippings/BEAP/Envelope",
				"type" : "JSON",
				"implicit" : 1
			}
, 			{
				"name" : "bp.Keyboard.maxpat",
				"bootpath" : "C74:/packages/BEAP/clippings/BEAP/Input",
				"type" : "JSON",
				"implicit" : 1
			}
, 			{
				"name" : "bp.LFO2.maxpat",
				"bootpath" : "C74:/packages/BEAP/clippings/BEAP/LFO",
				"type" : "JSON",
				"implicit" : 1
			}
, 			{
				"name" : "bp.Samplr.maxpat",
				"bootpath" : "C74:/packages/BEAP/clippings/BEAP/Oscillator",
				"type" : "JSON",
				"implicit" : 1
			}
, 			{
				"name" : "bp.Signal Mixer.maxpat",
				"bootpath" : "C74:/packages/BEAP/clippings/BEAP/Mixers",
				"type" : "JSON",
				"implicit" : 1
			}
, 			{
				"name" : "bp.Stereo.maxpat",
				"bootpath" : "C74:/packages/BEAP/clippings/BEAP/Output",
				"type" : "JSON",
				"implicit" : 1
			}
, 			{
				"name" : "bp.VCA.maxpat",
				"bootpath" : "C74:/packages/BEAP/clippings/BEAP/Level",
				"type" : "JSON",
				"implicit" : 1
			}
, 			{
				"name" : "bp.Wavetable.maxpat",
				"bootpath" : "C74:/packages/BEAP/clippings/BEAP/Oscillator",
				"type" : "JSON",
				"implicit" : 1
			}
, 			{
				"name" : "pastebang.maxpat",
				"bootpath" : "C74:/packages/BEAP/misc",
				"type" : "JSON",
				"implicit" : 1
			}
 ],
		"autosave" : 0
	}

}
